<svg width="22" height="22" viewBox="0 0 22 22" fill="none" xmlns="http://www.w3.org/2000/svg">
<path d="M2.27001 6.51025C1.59001 7.87025 1.20001 9.39024 1.20001 11.0002C1.20001 12.6102 1.59001 14.1302 2.27001 15.4902L2.28001 15.4803V15.4902C3.92001 18.7602 7.29001 21.0002 11.2 21.0002C13.9 21.0002 16.17 20.1102 17.82 18.5802C19.71 16.8402 20.8 14.2702 20.8 11.2202C20.8 10.4002 20.73 9.80024 20.59 9.18024H11.2V12.8903H16.71C16.6 13.8103 16 15.2002 14.67 16.1302C13.83 16.7202 12.69 17.1302 11.2 17.1302C8.56001 17.1302 6.31002 15.3902 5.51002 12.9702C5.30002 12.3502 5.18002 11.6802 5.18002 10.9902C5.18002 10.3002 5.30002 9.63025 5.50002 9.01025C5.56002 8.83025 5.63001 8.64025 5.71001 8.47025C6.66001 6.34025 8.76001 4.86023 11.2 4.86023C13.08 4.86023 14.34 5.67025 15.07 6.35025L17.89 3.59024C16.16 1.98024 13.9 0.990234 11.2 0.990234C9.05001 0.990234 7.06002 1.67025 5.43002 2.82025" stroke="white" stroke-width="1.5" stroke-miterlimit="10" stroke-linecap="round" stroke-linejoin="round"/>
</svg>
